<svg width="24" height="24" viewBox="0 0 24 24" fill="none" xmlns="http://www.w3.org/2000/svg">
    <path d="M17 22C18.6569 22 20 20.6569 20 19C20 17.3431 18.6569 16 17 16C15.3431 16 14 17.3431 14 19C14 20.6569 15.3431 22 17 22Z" stroke="white" stroke-width="1.5" stroke-linecap="round" stroke-linejoin="round"/>
    <path d="M17 8C18.6569 8 20 6.65685 20 5C20 3.34315 18.6569 2 17 2C15.3431 2 14 3.34315 14 5C14 6.65685 15.3431 8 17 8Z" stroke="white" stroke-width="1.5" stroke-linecap="round" stroke-linejoin="round"/>
    <path d="M5 15C6.65685 15 8 13.6569 8 12C8 10.3431 6.65685 9 5 9C3.34315 9 2 10.3431 2 12C2 13.6569 3.34315 15 5 15Z" stroke="white" stroke-width="1.5" stroke-linecap="round" stroke-linejoin="round"/>
    <path d="M14.5 6.5L7.5 10.5" stroke="white" stroke-width="1.5"/>
    <path d="M7.5 13.5L14.5 17.5" stroke="white" stroke-width="1.5"/>
</svg>
