<svg width="21" height="20" viewBox="0 0 21 20" fill="none" xmlns="http://www.w3.org/2000/svg">
    <path d="M10.1 20.0001C9.8 20.0001 9.5 20.0001 9.2 20.0001C3.7 19.5001 -0.3 14.6001 0.2 9.1001C0.6 4.3001 4.4 0.500098 9.2 0.100098C9.6 0.100098 10 0.300098 10.2 0.600098C10.4 0.900098 10.4 1.4001 10.1 1.7001C9.1 3.0001 8.8 4.6001 9 6.2001C9.2 7.8001 10.1 9.2001 11.4 10.1001C13.5 11.7001 16.4 11.7001 18.5 10.1001C18.8 9.9001 19.2 9.8001 19.6 10.0001C19.9 10.2001 20.1 10.6001 20.1 11.0001C19.9 13.7001 18.6 16.1001 16.5 17.8001C14.6 19.2001 12.4 20.0001 10.1 20.0001ZM7.3 2.4001C4.4 3.4001 2.4 6.0001 2.1 9.2001C1.7 13.6001 4.9 17.5001 9.3 17.9001C11.4 18.1001 13.5 17.5001 15.1 16.1001C16.2 15.2001 17 14.0001 17.5 12.7001C15 13.6001 12.2 13.2001 10 11.6001C8.3 10.3001 7.2 8.5001 6.8 6.4001C6.7 5.0001 6.9 3.7001 7.3 2.4001Z" fill="#FAFAFA"/>
</svg>
