<svg width="25" height="24" viewBox="0 0 25 24" fill="none" xmlns="http://www.w3.org/2000/svg">
    <path fill-rule="evenodd" clip-rule="evenodd" d="M2.5 6C2.5 5.44772 2.94772 5 3.5 5H21.5C22.0523 5 22.5 5.44772 22.5 6C22.5 6.55228 22.0523 7 21.5 7H3.5C2.94772 7 2.5 6.55228 2.5 6Z" fill="#FF0000"/>
    <path fill-rule="evenodd" clip-rule="evenodd" d="M10.5 3C10.2348 3 9.98043 3.10536 9.79289 3.29289C9.60536 3.48043 9.5 3.73478 9.5 4V5H15.5V4C15.5 3.73478 15.3946 3.48043 15.2071 3.29289C15.0196 3.10536 14.7652 3 14.5 3H10.5ZM17.5 5V4C17.5 3.20435 17.1839 2.44129 16.6213 1.87868C16.0587 1.31607 15.2956 1 14.5 1H10.5C9.70435 1 8.94129 1.31607 8.37868 1.87868C7.81607 2.44129 7.5 3.20435 7.5 4V5H5.5C4.94772 5 4.5 5.44772 4.5 6V20C4.5 20.7957 4.81607 21.5587 5.37868 22.1213C5.94129 22.6839 6.70435 23 7.5 23H17.5C18.2957 23 19.0587 22.6839 19.6213 22.1213C20.1839 21.5587 20.5 20.7957 20.5 20V6C20.5 5.44772 20.0523 5 19.5 5H17.5ZM6.5 7V20C6.5 20.2652 6.60536 20.5196 6.79289 20.7071C6.98043 20.8946 7.23478 21 7.5 21H17.5C17.7652 21 18.0196 20.8946 18.2071 20.7071C18.3946 20.5196 18.5 20.2652 18.5 20V7H6.5Z" fill="#FF0000"/>
</svg>