<svg width="24" height="19" viewBox="0 0 24 19" fill="none" xmlns="http://www.w3.org/2000/svg">
    <path fill-rule="evenodd" clip-rule="evenodd" d="M8.5922 3.33598L2.58141 16.0254H10.5763L12.7363 12.0847L8.5922 3.33598ZM13.9234 9.91888L9.49593 0.571915C9.13473 -0.190637 8.04967 -0.190639 7.68846 0.571912L0.0974762 16.5973C-0.216788 17.2608 0.267103 18.0254 1.00122 18.0254H10.9027L10.9236 17.9893C11.0106 18.0127 11.1031 18.0254 11.2 18.0254H22.1425C22.9198 18.0254 23.4155 17.2101 23.047 16.5377L17.5757 6.55612C17.1878 5.84848 16.1546 5.84848 15.7667 6.55612L13.9234 9.91888ZM12.9199 16.007L16.6712 9.16322L20.4225 16.007H12.9199Z" fill="white"/>
</svg>
